# xmcd CD database file
#
# Track frame offsets:
#	150
#	13195
#	32711
#	47767
#	61290
#	72474
#	81675
#	95357
#	111162
#	128925
#	146776
#
# Disc length: 2111 seconds
#
# Revision: 1
# Processed by: cddbd v1.5.2PL0 Copyright (c) Steve Scherf et al.
# Submitted via: CDex 1.51
#
DISCID=a4083d0b
DTITLE=Don Williams - The Album - CD 2
DYEAR=2004
DGENRE=Country
TTITLE0=Ruby tuesday
TTITLE1=You´ve got a friend
TTITLE2=Lay down Sally
TTITLE3=Ordinary
TTITLE4=The letter
TTITLE5=Apartment No.9
TTITLE6=You´re my best friend   ...live
TTITLE7=I´ve been loved by the best
TTITLE8=If you could read my mind
TTITLE9=Good ole boys like me
TTITLE10=Follow me back to Louisville
EXTD=YEAR: 2004
EXTT0=
EXTT1=
EXTT2=
EXTT3=
EXTT4=
EXTT5=
EXTT6=
EXTT7=
EXTT8=
EXTT9=
EXTT10=
PLAYORDER=
